<svg xmlns="http://www.w3.org/2000/svg" width="226.525" height="44.348" viewBox="0 0 212.368 41.576">
  <g style="line-height:125%" font-weight="400" font-size="40" font-family="Bebas Neue" letter-spacing="0" word-spacing="0" fill="#646464">
    <path d="M56.82 9.49h4.6v24h4.4v-24h4.6v-4h-13.6v4zM76.719 9.49h7.6v-4h-12v28h12v-4h-7.6v-8.2h6.04v-4h-6.04v-7.8zM96.766 5.49h-6.44l-4.48 28h4.04l.76-5.08h5.4l.76 5.08h4.44l-4.48-28zm-3.44 4.96l2.12 14.16h-4.24l2.12-14.16zM109.336 5.49h-6.12v28h3.84v-19.8l3.28 19.8h4.16l3.04-20.08v20.08h4.16v-28h-6.12l-3 19.88-3.24-19.88z" style="-inkscape-font-specification:'Bebas Neue Bold'" font-weight="700"/>
    <path d="M130.697 5.29c-4.04.04-5.76 2.84-5.76 6.92 0 7.72 10.72 7.48 10.72 14.56 0 3.4-1.32 6.08-5 6.08-3.68 0-5-2.68-5-6.08v-1.4h-.84v1.36c0 3.88 1.6 6.96 5.84 6.96 4.28 0 5.88-3.08 5.88-6.96 0-7.6-10.72-7.4-10.72-14.56 0-3.32 1.24-6.08 4.92-6.08 3.64 0 4.88 2.8 4.88 6.12v.56h.88v-.52c0-3.84-1.56-6.96-5.8-6.96zM140.542 18.89V6.33h9.8v-.84h-10.68v28h10.68v-.84h-9.8V19.69h8.24v-.8h-8.24zM153.49 5.49v28h.88V20.57h3.44c3.64 0 6.12 1.08 6.12 5.2v4.4c0 1.2.12 2.44.68 3.32h.96c-.64-.88-.76-2.24-.76-3.32v-4.4c0-3.08-1.32-5.12-4.44-5.6 3.08-.56 4.44-2.44 4.44-5.88v-2.52c0-3.84-1.6-6.28-5.76-6.28h-5.56zm.88 14.24V6.33h4.64c3.6 0 4.92 2.12 4.92 5.52v2.56c0 4.32-2.24 5.32-6.12 5.32h-3.44zM168.527 5.49l6.84 28h1.32l6.72-28h-.84l-6.56 27-6.56-27h-.92zM187.34 18.89V6.33h9.8v-.84h-10.68v28h10.68v-.84h-9.8V19.69h8.24v-.8h-8.24zM200.287 5.49v28h.88V20.57h3.44c3.64 0 6.12 1.08 6.12 5.2v4.4c0 1.2.12 2.44.68 3.32h.96c-.64-.88-.76-2.24-.76-3.32v-4.4c0-3.08-1.32-5.12-4.44-5.6 3.08-.56 4.44-2.44 4.44-5.88v-2.52c0-3.84-1.6-6.28-5.76-6.28h-5.56zm.88 14.24V6.33h4.64c3.6 0 4.92 2.12 4.92 5.52v2.56c0 4.32-2.24 5.32-6.12 5.32h-3.44z" style="-inkscape-font-specification:'Bebas Neue Light'" font-weight="300"/>
  </g>
  <path fill="#ffe182" d="M49.212 12.727H34.615L24.606 41.576z"/>
  <g fill="#ffcd73">
    <path d="M14.598 12.727L10.182 0 0 12.727zM39.03 0l-4.415 12.727h14.597zM14.598 12.727h20.017L24.606 0z"/>
  </g>
  <path fill="#ffaa64" d="M14.598 12.727L24.606 0H10.182z"/>
  <path fill="#ffe182" d="M34.615 12.727L39.03 0H24.606z"/>
  <path fill="#ffaa64" d="M34.615 12.727H14.598l10.008 28.849z"/>
  <path fill="#ff8c5a" d="M14.598 12.727H0l24.606 28.849z"/>
</svg>
